<svg width="48" height="17" viewBox="0 0 48 17" fill="none" xmlns="http://www.w3.org/2000/svg">
<path d="M22.571 4.27273H23.892V10.0128C23.892 10.6236 23.7486 11.1648 23.4616 11.6364C23.1747 12.1051 22.7713 12.4744 22.2514 12.7443C21.7315 13.0114 21.1222 13.1449 20.4233 13.1449C19.7273 13.1449 19.1193 13.0114 18.5994 12.7443C18.0795 12.4744 17.6761 12.1051 17.3892 11.6364C17.1023 11.1648 16.9588 10.6236 16.9588 10.0128V4.27273H18.2756V9.90625C18.2756 10.3011 18.3622 10.652 18.5355 10.9588C18.7116 11.2656 18.9602 11.5071 19.2812 11.6832C19.6023 11.8565 19.983 11.9432 20.4233 11.9432C20.8665 11.9432 21.2486 11.8565 21.5696 11.6832C21.8935 11.5071 22.1406 11.2656 22.3111 10.9588C22.4844 10.652 22.571 10.3011 22.571 9.90625V4.27273ZM27.8485 15.5909C27.3286 15.5909 26.8812 15.5227 26.5062 15.3864C26.134 15.25 25.83 15.0696 25.5942 14.8452C25.3585 14.6207 25.1823 14.375 25.0658 14.108L26.161 13.6562C26.2377 13.7812 26.34 13.9134 26.4678 14.0526C26.5985 14.1946 26.7746 14.3153 26.9962 14.4148C27.2207 14.5142 27.509 14.5639 27.8613 14.5639C28.3442 14.5639 28.7434 14.446 29.0587 14.2102C29.3741 13.9773 29.5317 13.6051 29.5317 13.0938V11.8068H29.4508C29.3741 11.946 29.2633 12.1009 29.1184 12.2713C28.9763 12.4418 28.7803 12.5895 28.5303 12.7145C28.2803 12.8395 27.955 12.902 27.5545 12.902C27.0374 12.902 26.5715 12.7812 26.1567 12.5398C25.7448 12.2955 25.4181 11.9361 25.1766 11.4616C24.938 10.9844 24.8187 10.3977 24.8187 9.7017C24.8187 9.00568 24.9366 8.40909 25.1724 7.91193C25.411 7.41477 25.7377 7.03409 26.1525 6.76989C26.5673 6.50284 27.0374 6.36932 27.563 6.36932C27.9692 6.36932 28.2974 6.4375 28.5474 6.57386C28.7974 6.70739 28.992 6.86364 29.1312 7.04261C29.2732 7.22159 29.3826 7.37926 29.4593 7.51562H29.5531V6.45455H30.8016V13.1449C30.8016 13.7074 30.671 14.169 30.4096 14.5298C30.1482 14.8906 29.7945 15.1577 29.3485 15.331C28.9053 15.5043 28.4053 15.5909 27.8485 15.5909ZM27.8357 11.8452C28.2022 11.8452 28.5119 11.7599 28.7647 11.5895C29.0204 11.4162 29.2136 11.169 29.3442 10.848C29.4778 10.5241 29.5445 10.1364 29.5445 9.68466C29.5445 9.24432 29.4792 8.85653 29.3485 8.52131C29.2178 8.18608 29.0261 7.92472 28.7732 7.73722C28.5204 7.54687 28.2079 7.4517 27.8357 7.4517C27.4522 7.4517 27.1326 7.55114 26.8769 7.75C26.6212 7.94602 26.4281 8.21307 26.2974 8.55114C26.1695 8.8892 26.1056 9.26705 26.1056 9.68466C26.1056 10.1136 26.171 10.4901 26.3016 10.8139C26.4323 11.1378 26.6255 11.3906 26.8812 11.5724C27.1397 11.7543 27.4579 11.8452 27.8357 11.8452ZM34.7315 13.1321C34.0866 13.1321 33.5312 12.9943 33.0653 12.7188C32.6022 12.4403 32.2442 12.0497 31.9914 11.5469C31.7414 11.0412 31.6164 10.4489 31.6164 9.76989C31.6164 9.09943 31.7414 8.50852 31.9914 7.99716C32.2442 7.4858 32.5965 7.08665 33.0482 6.79972C33.5028 6.51278 34.034 6.36932 34.642 6.36932C35.0113 6.36932 35.3692 6.4304 35.7158 6.55256C36.0624 6.67472 36.3735 6.86648 36.6491 7.12784C36.9246 7.3892 37.142 7.72869 37.3011 8.14631C37.4602 8.56108 37.5397 9.06534 37.5397 9.65909V10.1108H32.3366V9.15625H36.2911C36.2911 8.82102 36.2229 8.52415 36.0866 8.26562C35.9502 8.00426 35.7585 7.7983 35.5113 7.64773C35.267 7.49716 34.98 7.42188 34.6505 7.42188C34.2925 7.42188 33.98 7.50994 33.713 7.68608C33.4488 7.85937 33.2442 8.08665 33.0994 8.3679C32.9573 8.64631 32.8863 8.94886 32.8863 9.27557V10.0213C32.8863 10.4588 32.963 10.831 33.1164 11.1378C33.2727 11.4446 33.49 11.679 33.7684 11.8409C34.0468 12 34.3721 12.0795 34.7442 12.0795C34.9857 12.0795 35.2059 12.0455 35.4048 11.9773C35.6036 11.9062 35.7755 11.8011 35.9204 11.6619C36.0653 11.5227 36.1761 11.3509 36.2528 11.1463L37.4587 11.3636C37.3621 11.7187 37.1888 12.0298 36.9388 12.2969C36.6917 12.5611 36.3806 12.767 36.0056 12.9148C35.6335 13.0597 35.2087 13.1321 34.7315 13.1321ZM39.6276 9.11364V13H38.3534V6.45455H39.5764V7.51989H39.6574C39.808 7.1733 40.0438 6.89489 40.3648 6.68466C40.6886 6.47443 41.0963 6.36932 41.5878 6.36932C42.0338 6.36932 42.4244 6.46307 42.7597 6.65057C43.0949 6.83523 43.3548 7.1108 43.5395 7.47727C43.7241 7.84375 43.8165 8.29687 43.8165 8.83665V13H42.5423V8.99006C42.5423 8.51562 42.4188 8.14489 42.1716 7.87784C41.9244 7.60795 41.5849 7.47301 41.1531 7.47301C40.8577 7.47301 40.5949 7.53693 40.3648 7.66477C40.1375 7.79261 39.9571 7.98011 39.8236 8.22727C39.6929 8.47159 39.6276 8.76705 39.6276 9.11364Z" fill="#161616"/>
<path fill-rule="evenodd" clip-rule="evenodd" d="M10.68 2.05849C9.70808 2.30254 9.11859 3.14463 9.20059 4.17171C9.21385 4.33746 9.30172 4.85904 9.39587 5.33079C9.55643 6.13533 9.56705 6.23881 9.56651 6.99986C9.56584 7.92373 9.52074 8.16334 9.22926 8.79156C8.78899 9.74051 8.03553 10.1375 7.21623 9.85239C6.88336 9.73653 6.50531 9.34842 6.37552 8.98925C6.13559 8.32547 6.1544 7.66656 6.46016 6.02243C6.75187 4.45379 6.74524 3.74527 6.43284 3.10708C6.22109 2.67451 5.74661 2.28622 5.23208 2.12446C4.82958 1.99789 4.18463 2.02014 3.80183 2.17375C3.41406 2.32934 3.03896 2.64118 2.74372 3.05339C2.26413 3.72292 2.04973 4.49408 2.05256 5.53942C2.0535 5.89642 2.07423 6.27474 2.0986 6.38017C2.13152 6.5225 2.12534 6.65974 2.07473 6.91334C1.96365 7.46947 1.9791 8.84756 2.10312 9.4468C2.41883 10.9721 3.1087 12.0878 4.19261 12.826C4.67166 13.1523 5.64091 13.5776 6.34237 13.7694C7.70043 14.1407 9.03407 14.0616 10.0951 13.5469C12.0186 12.6138 13.4706 10.3824 13.918 7.67212C14.0272 7.01085 14.0273 5.65079 13.9183 5.02943C13.6307 3.39073 12.8649 2.32878 11.78 2.06405C11.4385 1.98074 10.9985 1.97851 10.68 2.05849Z" fill="url(#paint0_linear_42_14)"/>
<defs>
<linearGradient id="paint0_linear_42_14" x1="13.1969" y1="9.83535" x2="3.29314" y2="2.85919" gradientUnits="userSpaceOnUse">
<stop stop-color="#3B82F6"/>
<stop offset="0.374375" stop-color="#44A5DF"/>
<stop offset="1" stop-color="#06B6D4"/>
</linearGradient>
</defs>
</svg>
